<?xml version="1.0" standalone="no"?>
<!DOCTYPE svg PUBLIC "-//W3C//DTD SVG 20010904//EN"
 "http://www.w3.org/TR/2001/REC-SVG-20010904/DTD/svg10.dtd">
<svg version="1.0" xmlns="http://www.w3.org/2000/svg"
 width="260.000000pt" height="260.000000pt" viewBox="0 0 260.000000 260.000000"
 preserveAspectRatio="xMidYMid meet">
<metadata>
Created by potrace 1.11, written by Peter Selinger 2001-2013
</metadata>
<g transform="translate(0.000000,260.000000) scale(0.100000,-0.100000)"
fill="#000000" stroke="none">
<path d="M623 1859 c-278 -49 -479 -309 -460 -594 10 -142 68 -269 171 -370
189 -186 484 -209 703 -56 75 53 183 183 253 305 l33 59 22 -64 c46 -137 117
-232 222 -302 97 -63 171 -88 278 -94 164 -9 293 39 414 152 115 109 175 248
175 410 0 159 -54 287 -168 401 -154 153 -365 201 -573 130 -185 -63 -284
-158 -559 -537 -171 -237 -209 -278 -283 -313 -71 -32 -197 -30 -273 6 -70 32
-133 96 -167 168 -22 47 -26 69 -26 145 0 84 2 95 34 153 65 119 168 182 300
182 116 0 210 -48 272 -138 41 -60 74 -82 124 -82 46 0 91 41 100 94 6 30 2
45 -26 91 -111 183 -354 292 -566 254z m1404 -250 c134 -65 211 -218 183 -363
-23 -118 -89 -203 -199 -255 -46 -21 -70 -26 -136 -25 -100 0 -171 31 -239
104 -72 77 -91 127 -91 235 1 107 21 159 87 231 103 112 256 141 395 73z"/>
</g>
</svg>
