<?xml version="1.0" standalone="no"?>
<!DOCTYPE svg PUBLIC "-//W3C//DTD SVG 20010904//EN"
 "http://www.w3.org/TR/2001/REC-SVG-20010904/DTD/svg10.dtd">
<svg version="1.0" xmlns="http://www.w3.org/2000/svg"
 width="190.000000pt" height="190.000000pt" viewBox="0 0 190.000000 190.000000"
 preserveAspectRatio="xMidYMid meet">
<metadata>
Created by potrace 1.11, written by Peter Selinger 2001-2013
</metadata>
<g transform="translate(0.000000,190.000000) scale(0.100000,-0.100000)"
fill="#000000" stroke="none">
<path d="M0 950 l0 -950 950 0 950 0 0 950 0 950 -950 0 -950 0 0 -950z m1078
515 c192 -46 351 -205 397 -397 43 -182 -10 -365 -144 -499 -212 -212 -540
-212 -752 0 -212 212 -212 540 0 752 134 134 317 187 499 144z"/>
<path d="M760 1062 c-68 -36 -90 -137 -43 -201 45 -60 150 -61 208 -1 l28 29
37 -33 c100 -90 240 -26 227 103 -6 56 -34 92 -84 110 -52 19 -109 4 -151 -39
l-29 -29 -24 26 c-27 29 -77 53 -111 53 -13 0 -39 -8 -58 -18z m119 -78 c17
-14 31 -32 31 -39 0 -16 -56 -65 -74 -65 -25 0 -66 41 -66 65 0 24 41 65 66
65 7 0 26 -12 43 -26z m236 1 c14 -13 25 -33 25 -44 0 -20 -43 -61 -66 -61
-18 0 -74 49 -74 65 0 17 57 65 76 65 8 0 26 -11 39 -25z"/>
</g>
</svg>
