<?xml version="1.0" standalone="no"?>
<!DOCTYPE svg PUBLIC "-//W3C//DTD SVG 20010904//EN"
 "http://www.w3.org/TR/2001/REC-SVG-20010904/DTD/svg10.dtd">
<svg version="1.0" xmlns="http://www.w3.org/2000/svg"
 width="260.000000pt" height="260.000000pt" viewBox="0 0 260.000000 260.000000"
 preserveAspectRatio="xMidYMid meet">
<metadata>
Created by potrace 1.11, written by Peter Selinger 2001-2013
</metadata>
<g transform="translate(0.000000,260.000000) scale(0.100000,-0.100000)"
fill="#000000" stroke="none">
<path d="M1150 2124 c-126 -25 -186 -48 -279 -103 -174 -104 -312 -278 -372
-471 -28 -89 -33 -129 -34 -245 0 -127 8 -186 41 -277 46 -129 95 -208 189
-306 94 -99 224 -182 346 -221 145 -47 330 -51 477 -12 83 22 200 75 267 121
24 17 73 58 108 93 135 132 221 301 243 478 7 59 -6 65 -72 35 -84 -39 -267
-92 -324 -94 -163 -6 -217 0 -325 37 -94 32 -176 83 -235 147 -52 57 -45 67
49 70 209 5 411 55 582 142 47 24 169 105 197 132 47 44 13 119 -108 240 -109
109 -261 197 -395 226 -118 26 -250 29 -355 8z"/>
</g>
</svg>
