<?xml version="1.0" encoding="utf-8"?>
<!-- Generator: Adobe Illustrator 19.2.1, SVG Export Plug-In . SVG Version: 6.00 Build 0)  -->
<svg version="1.1" id="Layer_1" xmlns="http://www.w3.org/2000/svg" xmlns:xlink="http://www.w3.org/1999/xlink" x="0px" y="0px"
	 viewBox="0 0 190 190" style="enable-background:new 0 0 190 190;" xml:space="preserve">
<style type="text/css">
	.st0{fill:#F6256F;}
</style>
<path class="st0" d="M0,95v95h95h95V95V0H95H0V95z M107.8,43.5c19.2,4.6,35.1,20.5,39.7,39.7c4.3,18.2-1,36.5-14.4,49.9
	c-21.2,21.2-54,21.2-75.2,0s-21.2-54,0-75.2C71.3,44.5,89.6,39.2,107.8,43.5z"/>
<path class="st0" d="M76,83.8c-6.8,3.6-9,13.7-4.3,20.1c4.5,6,15,6.1,20.8,0.1l2.8-2.9l3.7,3.3c10,9,24,2.6,22.7-10.3
	c-0.6-5.6-3.4-9.2-8.4-11c-5.2-1.9-10.9-0.4-15.1,3.9l-2.9,2.9l-2.4-2.6c-2.7-2.9-7.7-5.3-11.1-5.3C80.5,82,77.9,82.8,76,83.8z
	 M87.9,91.6c1.7,1.4,3.1,3.2,3.1,3.9c0,1.6-5.6,6.5-7.4,6.5c-2.5,0-6.6-4.1-6.6-6.5s4.1-6.5,6.6-6.5C84.3,89,86.2,90.2,87.9,91.6z
	 M111.5,91.5c1.4,1.3,2.5,3.3,2.5,4.4c0,2-4.3,6.1-6.6,6.1c-1.8,0-7.4-4.9-7.4-6.5c0-1.7,5.7-6.5,7.6-6.5
	C108.4,89,110.2,90.1,111.5,91.5z"/>
</svg>
