<?xml version="1.0" standalone="no"?>
<!DOCTYPE svg PUBLIC "-//W3C//DTD SVG 20010904//EN"
 "http://www.w3.org/TR/2001/REC-SVG-20010904/DTD/svg10.dtd">
<svg version="1.0" xmlns="http://www.w3.org/2000/svg"
 width="260.000000pt" height="260.000000pt" viewBox="0 0 260.000000 260.000000"
 preserveAspectRatio="xMidYMid meet">
<metadata>
Created by potrace 1.11, written by Peter Selinger 2001-2013
</metadata>
<g transform="translate(0.000000,260.000000) scale(0.100000,-0.100000)"
fill="#000000" stroke="none">
<path d="M1189 2316 c-2 -3 -25 -7 -49 -10 -25 -3 -60 -10 -77 -15 -18 -5 -33
-7 -33 -4 0 3 -6 1 -12 -4 -7 -6 -26 -13 -42 -17 -45 -11 -229 -103 -262 -131
-6 -5 -31 -26 -55 -45 -24 -19 -52 -43 -62 -53 -10 -10 -23 -15 -29 -11 -7 4
-8 3 -4 -5 5 -7 -9 -29 -33 -54 -23 -23 -41 -45 -41 -49 0 -3 -6 -13 -13 -20
-19 -19 -87 -134 -87 -147 0 -6 -5 -11 -12 -11 -6 0 -8 -3 -5 -7 4 -3 3 -11
-2 -17 -14 -19 -50 -122 -68 -199 -11 -48 -17 -116 -17 -202 -1 -147 5 -204
30 -290 9 -33 17 -68 18 -77 0 -9 4 -14 8 -12 4 3 8 0 8 -7 0 -19 49 -118 94
-189 48 -76 48 -76 106 -137 25 -26 44 -52 42 -58 -2 -5 0 -7 4 -3 4 4 25 -8
46 -28 78 -70 278 -184 324 -184 8 0 13 -4 10 -8 -2 -4 3 -8 12 -8 9 -1 51 -9
92 -18 41 -10 118 -20 170 -22 52 -3 110 -6 128 -7 17 -2 32 0 32 4 0 4 12 7
28 5 15 -1 32 1 37 5 6 4 28 9 50 11 22 2 42 6 45 10 3 3 19 8 35 10 17 2 32
6 35 10 3 4 15 9 27 11 12 1 28 9 37 16 9 7 16 11 16 8 0 -8 149 70 160 84 9
11 55 33 63 31 5 -1 6 1 3 6 -3 5 18 28 47 52 29 24 70 66 92 93 22 27 45 54
51 60 19 21 104 171 104 183 0 7 4 14 8 16 14 5 62 164 74 244 16 104 5 111
-105 58 -80 -38 -225 -81 -337 -100 -54 -9 -240 -11 -240 -3 0 4 -9 5 -21 2
-12 -4 -25 0 -30 8 -5 8 -9 9 -9 3 0 -7 -11 -9 -25 -6 -14 2 -25 8 -25 12 0 4
-11 6 -25 4 -14 -1 -31 3 -38 9 -6 7 -16 12 -22 12 -27 1 -84 28 -79 37 4 6 2
8 -4 4 -18 -11 -136 60 -125 77 3 6 1 7 -5 3 -13 -8 -82 54 -82 73 0 7 -4 10
-9 7 -4 -3 -13 5 -19 18 -9 20 -7 25 14 35 18 8 24 8 24 -2 0 -8 3 -9 8 -1 8
13 61 13 81 0 10 -6 12 -6 7 3 -5 8 2 11 26 10 128 -5 380 54 568 134 14 6 27
11 30 12 3 0 15 6 28 13 12 7 28 10 34 6 7 -4 8 -3 4 4 -4 7 2 16 16 22 75 33
215 138 229 172 6 15 9 38 6 51 -7 26 -65 117 -86 133 -8 7 -11 16 -6 24 5 8
4 11 -2 7 -12 -8 -86 69 -78 82 3 6 0 9 -7 6 -7 -3 -32 12 -55 34 -24 21 -43
37 -43 35 0 -3 -23 11 -51 31 -28 19 -56 35 -61 35 -5 0 -6 5 -2 12 4 6 3 8
-4 5 -5 -4 -33 4 -60 18 -27 14 -55 25 -62 25 -6 0 -9 3 -7 8 3 4 -5 7 -16 8
-12 1 -58 11 -102 23 -58 16 -119 24 -220 27 -78 3 -143 3 -146 0z"/>
</g>
</svg>
